<svg width="37" height="37" viewBox="0 0 37 37" fill="none" xmlns="http://www.w3.org/2000/svg">
<path d="M14.4061 12.2498C14.4059 12.6476 14.2477 13.0291 13.9663 13.3102C13.6848 13.5914 13.3032 13.7492 12.9054 13.749C12.5075 13.7488 12.1261 13.5906 11.8449 13.3092C11.5638 13.0277 11.4059 12.6461 11.4061 12.2483C11.4063 11.8504 11.5645 11.469 11.846 11.1878C12.1274 10.9067 12.509 10.7488 12.9069 10.749C13.3047 10.7492 13.6861 10.9074 13.9673 11.1889C14.2485 11.4703 14.4063 11.8519 14.4061 12.2498ZM14.4511 14.8598H11.4511V24.2498H14.4511V14.8598ZM19.1911 14.8598H16.2061V24.2498H19.1611V19.3223C19.1611 16.5773 22.7386 16.3223 22.7386 19.3223V24.2498H25.7011V18.3023C25.7011 13.6748 20.4061 13.8473 19.1611 16.1198L19.1911 14.8598Z" fill="#75757F"/>
<rect x="0.701126" y="0.515625" width="35" height="35" rx="17.5" stroke="#81818B" stroke-opacity="0.9"/>
</svg>
