<svg width="37" height="37" viewBox="0 0 37 37" fill="none" xmlns="http://www.w3.org/2000/svg">
<path d="M23.5601 14.401C24.1885 13.9933 24.6046 13.4369 24.8084 12.7293C24.1971 13.072 23.5881 13.3071 22.9799 13.4369C22.4332 12.8156 21.741 12.5 20.9111 12.5C20.1 12.5 19.4148 12.8008 18.8556 13.386C18.2995 13.9752 18.0187 14.6911 18.0187 15.5269C18.0187 15.7809 18.0491 16.0077 18.1097 16.2C15.7174 16.1137 13.7373 15.065 12.1772 13.0465C11.9128 13.5405 11.7805 14.0435 11.7805 14.5637C11.7805 15.6329 12.2075 16.4803 13.0599 17.1024C12.5738 17.0589 12.1453 16.929 11.7805 16.7161C11.7805 17.4797 11.9929 18.1174 12.4183 18.6788C12.8453 19.2343 13.3936 19.5886 14.0632 19.7398C13.8205 19.8055 13.5647 19.8368 13.3018 19.8368C13.0591 19.8368 12.8873 19.8154 12.7854 19.7685C12.9643 20.3907 13.3018 20.8953 13.7894 21.2816C14.2755 21.6695 14.8347 21.8742 15.4631 21.8922C14.4272 22.7511 13.2427 23.176 11.9026 23.176C11.5744 23.176 11.3419 23.171 11.2011 23.1447C12.5209 24.0504 13.9901 24.5 15.6155 24.5C17.2791 24.5 18.749 24.0546 20.0284 23.1637C21.3078 22.2777 22.252 21.1846 22.8586 19.8976C23.4683 18.6122 23.7701 17.2742 23.7701 15.877V15.4924C24.3596 15.0239 24.8364 14.4963 25.2011 13.9136C24.6723 14.1544 24.1255 14.318 23.5601 14.401Z" fill="#75757F"/>
<rect x="0.701126" y="0.515625" width="35" height="35" rx="17.5" stroke="#81818B" stroke-opacity="0.9"/>
</svg>
