<svg width="37" height="37" viewBox="0 0 37 37" fill="none" xmlns="http://www.w3.org/2000/svg">
<path d="M25.8668 14.3776C25.6828 13.6385 25.1406 13.0565 24.4522 12.8589C23.2045 12.5 18.2011 12.5 18.2011 12.5C18.2011 12.5 13.1978 12.5 11.95 12.8589C11.2616 13.0565 10.7195 13.6385 10.5355 14.3776C10.2011 15.7172 10.2011 18.5121 10.2011 18.5121C10.2011 18.5121 10.2011 21.3071 10.5355 22.6467C10.7195 23.3857 11.2616 23.9435 11.95 24.1411C13.1978 24.5 18.2011 24.5 18.2011 24.5C18.2011 24.5 23.2044 24.5 24.4522 24.1411C25.1406 23.9435 25.6828 23.3857 25.8668 22.6467C26.2011 21.3071 26.2011 18.5121 26.2011 18.5121C26.2011 18.5121 26.2011 15.7172 25.8668 14.3776ZM16.5648 21.0497V15.9745L20.7466 18.5122L16.5648 21.0497Z" fill="#75757F"/>
<rect x="0.701126" y="0.515625" width="35" height="35" rx="17.5" stroke="#81818B" stroke-opacity="0.9"/>
</svg>
