<svg width="37" height="37" viewBox="0 0 37 37" fill="none" xmlns="http://www.w3.org/2000/svg">
<path fill-rule="evenodd" clip-rule="evenodd" d="M15.0011 10.5H21.4011C24.0521 10.5 26.2011 12.649 26.2011 15.3V21.7C26.2011 24.351 24.0521 26.5 21.4011 26.5H15.0011C12.3502 26.5 10.2011 24.351 10.2011 21.7V15.3C10.2011 12.649 12.3502 10.5 15.0011 10.5ZM15.0011 12.1C13.2338 12.1 11.8011 13.5327 11.8011 15.3V21.7C11.8011 23.4673 13.2338 24.9 15.0011 24.9H21.4011C23.1684 24.9 24.6011 23.4673 24.6011 21.7V15.3C24.6011 13.5327 23.1684 12.1 21.4011 12.1H15.0011ZM18.2011 22.5C15.992 22.5 14.2011 20.7091 14.2011 18.5C14.2011 16.2909 15.992 14.5 18.2011 14.5C20.4103 14.5 22.2011 16.2909 22.2011 18.5C22.2011 20.7091 20.4103 22.5 18.2011 22.5ZM18.2011 20.9C19.5266 20.9 20.6011 19.8255 20.6011 18.5C20.6011 17.1745 19.5266 16.1 18.2011 16.1C16.8756 16.1 15.8011 17.1745 15.8011 18.5C15.8011 19.8255 16.8756 20.9 18.2011 20.9ZM22.2011 15.3C21.7593 15.3 21.4011 14.9418 21.4011 14.5C21.4011 14.0582 21.7593 13.7 22.2011 13.7C22.643 13.7 23.0011 14.0582 23.0011 14.5C23.0011 14.9418 22.643 15.3 22.2011 15.3Z" fill="#75757F"/>
<rect x="0.701126" y="0.515625" width="35" height="35" rx="17.5" stroke="#81818B" stroke-opacity="0.9"/>
</svg>
